{"title":"Suits.S02E02.The.Choice.720p.WEB-DL.DD5.1.H.264-CtrlHD [PublicHD","uid":7377396,"size":1413578028,"categoryP":"video","categoryS":"hd___tv_shows","magnet":"?xt=urn:btih:f451f4980d422adc2c41176bfb8f8f6ca687451a&amp;dn=Suits.S02E02.The.Choice.720p.WEB-DL.DD5.1.H.264-CtrlHD+%5BPublicHD&amp;tr=udp%3A%2F%2Ftracker.openbittorrent.com%3A80&amp;tr=udp%3A%2F%2Fopen.demonii.com%3A1337&amp;tr=udp%3A%2F%2Ftracker.coppersurfer.tk%3A6969&amp;tr=udp%3A%2F%2Fexodus.desync.com%3A6969","seeders":7,"leechers":2,"uploader":"DibyaTPB","files":2,"time":1340396773,"description":"PublicHD - High-Definition Bittorrent Community \n   \n &lt;a href=&quot; http://publichd.eu/&quot; rel=&quot;nofollow&quot; target=&quot;_NEW&quot;&gt; http://publichd.eu/&lt;/a&gt;\n\n-----------------------------------------------------\n\n\nSuits.S02E02.The.Choice.720p.WEB-DL.DD5.1.H.264-CtrlHD [PublicHD]\n\n\n\nVideo\nID                               : 1\nFormat                           : AVC\nFormat/Info                      : Advanced Video Codec\nFormat profile                   : &lt;a class=&quot;__cf_email__&quot; href=&quot;/cdn-cgi/l/email-protection&quot; data-cfemail=&quot;80c8e9e7e8c0ccb3aeb1&quot;&gt;[email&amp;#160;protected]&lt;/a&gt;&lt;script cf-hash='f9e31' type=&quot;text/javascript&quot;&gt;\n/* &lt;![CDATA[ */!function(){try{var t=&quot;currentScript&quot;in document?document.currentScript:function(){for(var t=document.getElementsByTagName(&quot;script&quot;),e=t.length;e--;)if(t[e].getAttribute(&quot;cf-hash&quot;))return t[e]}();if(t&amp;&amp;t.previousSibling){var e,r,n,i,c=t.previousSibling,a=c.getAttribute(&quot;data-cfemail&quot;);if(a){for(e=&quot;&quot;,r=parseInt(a.substr(0,2),16),n=2;a.length-n;n+=2)i=parseInt(a.substr(n,2),16)^r,e+=String.fromCharCode(i);e=document.createTextNode(e),c.parentNode.replaceChild(e,c)}}}catch(u){}}();/* ]]&gt; */&lt;/script&gt;\nFormat settings, CABAC           : No\nFormat settings, ReFrames        : 2 frames\nFormat settings, GOP             : M=2, N=51\nCodec ID                         : V_MPEG4/ISO/AVC\nDuration                         : 42mn 48s\nBit rate                         : 3 931 Kbps\nWidth                            : 1 280 pixels\nHeight                           : 720 pixels\nDisplay aspect ratio             : 16:9\nFrame rate                       : 23.976 fps\nColor space                      : YUV\nChroma subsampling               : 4:2:0\nBit depth                        : 8 bits\nScan type                        : Progressive\nBits/(Pixel*Frame)               : 0.178\nStream size                      : 1.18 GiB (89%)\nLanguage                         : English\n\nAudio\nID                               : 2\nFormat                           : AC-3\nFormat/Info                      : Audio Coding 3\nMode extension                   : CM (complete main)\nCodec ID                         : A_AC3\nDuration                         : 42mn 48s\nBit rate mode                    : Constant\nBit rate                         : 384 Kbps\nChannel(s)                       : 6 channels\nChannel positions                : Front: L C R, Side: L R, LFE\nSampling rate                    : 48.0 KHz\nBit depth                        : 16 bits\nCompression mode                 : Lossy\nStream size                      : 118 MiB (9%)\nLanguage                         : English\n","torrent":{"xt":"urn:btih:f451f4980d422adc2c41176bfb8f8f6ca687451a","amp;dn":"Suits.S02E02.The.Choice.720p.WEB-DL.DD5.1.H.264-CtrlHD+%5BPublicHD","amp;tr":["udp%3A%2F%2Ftracker.openbittorrent.com%3A80","udp%3A%2F%2Fopen.demonii.com%3A1337","udp%3A%2F%2Ftracker.coppersurfer.tk%3A6969","udp%3A%2F%2Fexodus.desync.com%3A6969"],"infoHash":"f451f4980d422adc2c41176bfb8f8f6ca687451a","infoHashBuffer":{"type":"Buffer","data":[244,81,244,152,13,66,42,220,44,65,23,107,251,143,143,108,166,135,69,26]},"announce":[],"urlList":[]}}